#!OML:ASF H:\Pregnant\Project 1\Capture day 1\Session 1\femalepreg.ASF
:FULLY-SPECIFIED
:DEGREES
2687
root 10.3933 13.2435 27.9834 618.704 -41.2043 -585.971
lowerback 7.34356 9.66397 25.5355
upperback -4.98118 14.2652 11.7616
thorax -6.7791 4.95852 -1.76124
lowerneck -23.6822 13.9198 11.9302
upperneck 26.5394 20.9453 -14.2768
head 16.4688 8.27562 -3.18048
rclavicle -3.65764e-014 -1.06549e-013
rhumerus -19.6314 -63.2057 7.88292
rradius 22.2906
rwrist 29.9989
rhand -12.9038 -15.318
rfingers 7.12502
rthumb 13.1859 -44.8811
lclavicle -3.65764e-014 -1.06549e-013
lhumerus -38.1799 37.7445 -35.7256
lradius 30.2438
lwrist 28.1082
lhand -44.2409 13.0069
lfingers 7.12502
lthumb -17.0531 42.2785
rfemur -346.434 -183.515 287.175
rtibia 41.7363
rfoot -340.455 -289.781
rtoes 34.2187
lfemur -23.1093 10.3665 319.263
ltibia -2.38542e-014
lfoot -4.67652 9.02589
ltoes -36.4321
2688
root 10.3951 13.2404 27.9805 618.67 -41.0904 -585.916
lowerback 7.52609 9.68306 25.6516
upperback -4.87483 14.3342 11.7876
thorax -6.72838 4.99291 -1.80653
lowerneck -23.9406 13.9017 11.8455
upperneck 26.532 20.9293 -14.2892
head 16.5099 8.24207 -3.16506
rclavicle 9.38264e-014 4.6118e-014
rhumerus -19.5195 -63.3316 7.99706
rradius 22.2907
rwrist 30.1527
rhand -12.6564 -15.3108
rfingers 7.12502
rthumb 13.4244 -44.8582
lclavicle 9.38264e-014 4.6118e-014
lhumerus -38.3852 37.5269 -35.637
lradius 30.288
lwrist 28.369
lhand -44.2816 13.0888
lfingers 7.12502
lthumb -17.0923 42.3569
rfemur -346.371 -183.517 287.048
rtibia 41.7577
rfoot -340.425 -289.823
rtoes 34.2567
lfemur -23.1252 10.4403 319.171
ltibia 0
lfoot -4.67149 9.02181
ltoes -36.4485
2689
root 10.3966 13.2374 27.9774 618.621 -40.9753 -585.847
lowerback 7.70672 9.70037 25.7688
upperback -4.75483 14.3979 11.8095
thorax -6.65952 5.02797 -1.85571
lowerneck -24.2256 13.8938 11.7792
upperneck 26.5305 20.9257 -14.314
head 16.5667 8.21161 -3.15319
rclavicle -8.26944e-014 -1.46306e-013
rhumerus -19.4031 -63.4771 8.09181
rradius 22.2783
rwrist 30.3474
rhand -12.4152 -15.3361
rfingers 7.12502
rthumb 13.6569 -44.868
lclavicle -8.26944e-014 -1.46306e-013
lhumerus -38.6002 37.2613 -35.5487
lradius 30.3466
lwrist 28.7209
lhand -44.3462 13.1105
lfingers 7.12502
lthumb -17.1544 42.3732
rfemur -346.295 -183.57 286.965
rtibia 41.775
rfoot -340.357 -289.815
rtoes 34.3338
lfemur -23.1375 10.5272 319.082
ltibia -3.18055e-014
lfoot -4.67587 9.01529
ltoes -36.4574
2690
root 10.3979 13.2344 27.9744 618.57 -40.8627 -585.769
lowerback 7.87971 9.71492 25.8882
upperback -4.63142 14.4554 11.8245
thorax -6.58072 5.06165 -1.91156
lowerneck -24.4985 13.8977 11.7618
upperneck 26.5145 20.9396 -14.3897
head 16.633 8.18729 -3.1658
rclavicle 2.54444e-014 -9.06458e-014
rhumerus -19.2863 -63.6314 8.16041
rradius 22.2578
rwrist 30.5545
rhand -12.1808 -15.3839
rfingers 7.12502
rthumb 13.8827 -44.9006
lclavicle 2.54444e-014 -9.06458e-014
lhumerus -38.8226 36.9377 -35.4612
lradius 30.4336
lwrist 29.1522
lhand -44.4344 13.1114
lfingers 7.12502
lthumb -17.2393 42.3668
rfemur -346.211 -183.68 286.925
rtibia 41.7888
rfoot -340.279 -289.752
rtoes 34.4365
lfemur -23.1537 10.6184 318.996
ltibia 3.33958e-014
lfoot -4.6836 9.00771
ltoes -36.4699
2691
root 10.3988 13.2314 27.9716 618.527 -40.7527 -585.69
lowerback 8.03878 9.72369 26.0023
upperback -4.52274 14.5043 11.8323
thorax -6.51202 5.08989 -1.97143
lowerneck -24.7159 13.9104 11.8069
upperneck 26.4949 20.9586 -14.4962
head 16.7005 8.17087 -3.20202
rclavicle 6.36111e-015 2.06736e-013
rhumerus -19.1436 -63.7615 8.17244
rradius 22.2253
rwrist 30.7567
rhand -11.9804 -15.4439
rfingers 7.12502
rthumb 14.0759 -44.9472
lclavicle 6.36111e-015 2.06736e-013
lhumerus -39.0371 36.5517 -35.3757
lradius 30.5371
lwrist 29.6219
lhand -44.5202 13.0693
lfingers 7.12502
lthumb -17.3219 42.3174
rfemur -346.125 -183.775 286.871
rtibia 41.8001
rfoot -340.21 -289.708
rtoes 34.5168
lfemur -23.1803 10.7068 318.91
ltibia -5.56597e-014
lfoot -4.69405 8.99754
ltoes -36.4756
2692
root 10.3995 13.2286 27.9688 618.5 -40.6499 -585.614
lowerback 8.18377 9.72808 26.1134
upperback -4.43443 14.5474 11.8341
thorax -6.45941 5.11269 -2.03524
lowerneck -24.8624 13.9284 11.8716
upperneck 26.4559 20.9729 -14.584
head 16.7414 8.16307 -3.23722
rclavicle -1.27222e-014 -1.23246e-013
rhumerus -18.9762 -63.8633 8.13591
rradius 22.1849
rwrist 30.9094
rhand -11.7761 -15.51
rfingers 7.12502
rthumb 14.2727 -44.9995
lclavicle -1.27222e-014 -1.23246e-013
lhumerus -39.2359 36.1881 -35.3084
lradius 30.6396
lwrist 30.0378
lhand -44.5998 12.9736
lfingers 7.12502
lthumb -17.3985 42.2149
rfemur -346.043 -183.821 286.779
rtibia 41.8091
rfoot -340.183 -289.716
rtoes 34.5453
lfemur -23.2195 10.7869 318.828
ltibia 2.06736e-014
lfoot -4.70357 8.98559
ltoes -36.4785
2693
root 10.3999 13.2257 27.9661 618.494 -40.5472 -585.542
lowerback 8.30939 9.72828 26.2078
upperback -4.37177 14.5834 11.832
thorax -6.42987 5.12914 -2.09452
lowerneck -24.9419 13.9466 11.9495
upperneck 26.4229 20.9736 -14.6318
head 16.7621 8.16122 -3.26424
rclavicle -3.97569e-014 -4.69132e-014
rhumerus -18.7714 -63.9343 8.03654
rradius 22.1371
rwrist 31.0314
rhand -11.5819 -15.5614
rfingers 7.12502
rthumb 14.4599 -45.0376
lclavicle -3.97569e-014 -4.69132e-014
lhumerus -39.4134 35.8496 -35.264
lradius 30.7331
lwrist 30.3767
lhand -44.658 13.0088
lfingers 7.12502
lthumb -17.4545 42.2451
rfemur -345.965 -183.844 286.656
rtibia 41.8163
rfoot -340.173 -289.761
rtoes 34.5398
lfemur -23.2774 10.8563 318.742
ltibia -1.74931e-014
lfoot -4.70889 8.97206
ltoes -36.4974
2694
root 10.4002 13.223 27.9634 618.512 -40.4517 -585.477
lowerback 8.4159 9.73155 26.2855
upperback -4.33495 14.6202 11.8372
thorax -6.42523 5.14207 -2.13708
lowerneck -24.9345 13.9594 12.0382
upperneck 26.3632 20.9717 -14.6965
head 16.755 8.1641 -3.30411
rclavicle -6.36111e-015 3.49861e-014
rhumerus -18.5347 -63.9704 7.90646
rradius 22.0986
rwrist 31.0837
rhand -11.3256 -15.5931
rfingers 7.12502
rthumb 14.7068 -45.0514
lclavicle -6.36111e-015 3.49861e-014
lhumerus -39.5721 35.6329 -35.2465
lradius 30.7943
lwrist 30.5698
lhand -44.7021 13.1221
lfingers 7.12502
lthumb -17.497 42.3547
rfemur -345.893 -183.858 286.518
rtibia 41.8214
rfoot -340.172 -289.832
rtoes 34.5175
lfemur -23.3546 10.9126 318.657
ltibia 6.36111e-015
lfoot -4.71237 8.95713
ltoes -36.5251
2695
root 10.4005 13.2202 27.9606 618.542 -40.3574 -585.414
lowerback 8.51224 9.73646 26.3536
upperback -4.30862 14.657 11.8436
thorax -6.42945 5.15381 -2.17311
lowerneck -24.9289 13.9653 12.1005
upperneck 26.3274 20.9577 -14.7194
head 16.7464 8.16418 -3.32612
rclavicle -1.27222e-014 2.38542e-014
rhumerus -18.2919 -64.0015 7.76199
rradius 22.0604
rwrist 31.1335
rhand -11.0554 -15.563
rfingers 7.12502
rthumb 14.9671 -45.0022
lclavicle -1.27222e-014 2.38542e-014
lhumerus -39.717 35.509 -35.2543
lradius 30.8293
lwrist 30.674
lhand -44.7117 13.3803
lfingers 7.12502
lthumb -17.5062 42.612
rfemur -345.821 -183.874 286.373
rtibia 41.825
rfoot -340.154 -289.915
rtoes 34.4995
lfemur -23.4447 10.9627 318.57
ltibia -1.90833e-014
lfoot -4.71067 8.94306
ltoes -36.5668
2696
root 10.4009 13.2176 27.9576 618.579 -40.2689 -585.352
lowerback 8.60339 9.74227 26.4198
upperback -4.28381 14.6926 11.8561
thorax -6.43467 5.16463 -2.20078
lowerneck -24.9251 13.9673 12.1513
upperneck 26.2902 20.9487 -14.7588
head 16.74 8.16265 -3.35204
rclavicle 6.20208e-014 1.28017e-013
rhumerus -18.0444 -64.064 7.61182
rradius 22.0309
rwrist 31.2173
rhand -10.715 -15.4919
rfingers 7.12502
rthumb 15.295 -44.9063
lclavicle 6.20208e-014 1.28017e-013
lhumerus -39.8552 35.4049 -35.2659
lradius 30.849
lwrist 30.7878
lhand -44.7167 13.7117
lfingers 7.12502
lthumb -17.511 42.9431
rfemur -345.75 -183.882 286.225
rtibia 41.8271
rfoot -340.114 -290.016
rtoes 34.484
lfemur -23.5426 11.0087 318.488
ltibia 6.67916e-014
lfoot -4.70327 8.93154
ltoes -36.6033
